# xmcd
#
# Track frame offsets: 
#        150
#        14847
#        38110
#        56992
#
# Disc length: 1032 seconds
#
# Revision: 0
# Processed by: cddbd v1.5.2PL0 Copyright (c) Steve Scherf et al.
# Submitted via: ExactAudioCopy v0.99pb5
#
DISCID=35040604
DTITLE=We Are Vessels EP - We Are Vessels
DYEAR=2009
DGENRE=Alt. Rock
TTITLE0=I am A Machine
TTITLE1=What? Pardon Me
TTITLE2=Punch, Brothers, Punch
TTITLE3=Failure is Something
EXTD=
EXTT0=
EXTT1=
EXTT2=
EXTT3=
PLAYORDER=
